PathFileType	4	(X/Y/Z)	./resultDataOpenSim/trcMotMarkerGrf/sub10/qtm-14-08.trc
DataRate	CameraRate	NumFrames	NumMarkers	Units	OrigDataRate	OrigDataStartFrame	OrigNumFrames
250.000000	250.000000	12	24	m	250.000000	127	507
Frame#	Time	L.Toe.Tip			R.Toe.Tip			L.Ankle.Lat			R.Ankle.Lat			L.Ankle.Med			R.Ankle.Med			L.Heel			R.Heel			L.Knee.Lat			R.Knee.Lat			L.Knee.Med			R.Knee.Med			L.Thigh.Upper			R.Thigh.Upper			L.ASIS			R.ASIS			V.Sacral			L.Acromium			R.Acromium			C7			L.Elbow			R.Elbow			L.Wrist.Lat			R.Wrist.Lat
		X1	Y1	Z1	X2	Y2	Z2	X3	Y3	Z3	X4	Y4	Z4	X5	Y5	Z5	X6	Y6	Z6	X7	Y7	Z7	X8	Y8	Z8	X9	Y9	Z9	X10	Y10	Z10	X11	Y11	Z11	X12	Y12	Z12	X13	Y13	Z13	X14	Y14	Z14	X15	Y15	Z15	X16	Y16	Z16	X17	Y17	Z17	X18	Y18	Z18	X19	Y19	Z19	X20	Y20	Z20	X21	Y21	Z21	X22	Y22	Z22	X23	Y23	Z23	X24	Y24	Z24

127	0.504	-0.41353006	0.054246456	-0.105152	-0.66763738	0.040217266	0.041910271	-0.54560199	0.084933944	-0.097923913	-0.80571341	0.053107359	0.086081813	-0.51437127	0.10370347	-0.019902904	-0.79286971	0.084562573	0.0033633007	-0.59845905	0.054728485	-0.036531098	-0.85944273	0.031020202	0.040771975	-0.48759873	0.47081674	-0.12134446	-0.71016049	0.44506727	0.14388692	-0.45660254	0.44725579	-0.0056297923	-0.71234247	0.45299052	0.012992502	-0.63068384	0.82103944	-0.17274532	-0.66108256	0.85932712	0.20732664	-0.58774087	0.93473926	-0.10876367	-0.58535018	0.94612435	0.13644112	-0.79332491	0.95811209	0.018661816	-0.64837041	1.4164842	-0.14110688	-0.65049232	1.4013653	0.18512755	-0.73598276	1.4386755	0.018926731	-0.74530733	1.0847007	-0.19654044	-0.65909995	1.0446229	0.23568719	-0.61566501	0.87715689	-0.21089968	-0.4632974	0.89258329	0.22693219
128	0.508	-0.39508785	0.055584014	-0.10451745	-0.66767053	0.040136834	0.041781966	-0.52802816	0.082289296	-0.097665932	-0.80562589	0.053149978	0.086017428	-0.49756559	0.10202997	-0.019678947	-0.79262946	0.084539754	0.0033454952	-0.57995975	0.050802329	-0.036277913	-0.85942229	0.031121275	0.040709343	-0.48120839	0.47009109	-0.12122738	-0.70811648	0.44458813	0.14340914	-0.4497285	0.44692487	-0.0054310655	-0.70994963	0.45265943	0.012664673	-0.62406245	0.82077852	-0.17307213	-0.6581459	0.85887932	0.20786834	-0.58185958	0.93413456	-0.10867907	-0.58082221	0.94521205	0.136633	-0.78751231	0.95803574	0.018918683	-0.64300244	1.4156542	-0.14108514	-0.64541007	1.4008338	0.18514526	-0.73098186	1.4379693	0.01889406	-0.74146146	1.0843255	-0.19714044	-0.65167089	1.0438289	0.23535311	-0.61289062	0.87587518	-0.21109911	-0.45392347	0.89447847	0.22513588
129	0.512	-0.37669135	0.057079114	-0.10373322	-0.66766596	0.040024287	0.041682856	-0.51044934	0.079921451	-0.097518304	-0.80553015	0.053199918	0.085957053	-0.4807213	0.10069379	-0.019386474	-0.79238209	0.084513155	0.003297457	-0.5615856	0.047136554	-0.036253391	-0.8594	0.031217995	0.040652849	-0.47485368	0.46923537	-0.12113819	-0.70571396	0.44409643	0.14297902	-0.44283561	0.44653916	-0.0051914762	-0.70744858	0.45229355	0.012303304	-0.61732544	0.82049667	-0.17332308	-0.65529156	0.85849363	0.20846206	-0.57591965	0.93346005	-0.10861397	-0.57626254	0.94427708	0.13679881	-0.7818831	0.95763809	0.018852343	-0.63762011	1.4147686	-0.14108284	-0.64030851	1.4002404	0.18515615	-0.72579467	1.4372125	0.018827182	-0.73785459	1.0838281	-0.19800523	-0.64437154	1.0430122	0.2350947	-0.61012607	0.87456675	-0.21129457	-0.44461547	0.89636363	0.22328439
130	0.516	-0.35834958	0.058740869	-0.10280945	-0.66763525	0.039903376	0.04159965	-0.49281977	0.077837022	-0.097426167	-0.80542603	0.053255655	0.085897482	-0.46389864	0.099660877	-0.019040994	-0.7921561	0.084486009	0.0031653449	-0.54329988	0.043696039	-0.036428595	-0.85937566	0.031320662	0.040603678	-0.46853864	0.46825585	-0.12107514	-0.70307185	0.44358716	0.14258163	-0.43609518	0.44603933	-0.0049513834	-0.7048666	0.45188198	0.011901227	-0.61065141	0.82016631	-0.17352678	-0.65191551	0.85800259	0.20855241	-0.56991915	0.93271841	-0.10856598	-0.57166737	0.94331781	0.13693703	-0.77692893	0.95696876	0.018516621	-0.63221512	1.4138265	-0.141093	-0.63520068	1.3995891	0.18517065	-0.72034332	1.4364001	0.018717949	-0.73419343	1.0832325	-0.19893192	-0.63715686	1.0421713	0.23487609	-0.60742193	0.87322649	-0.21149211	-0.4353756	0.8982387	0.22140205
131	0.52	-0.34005922	0.060582667	-0.10174326	-0.66759108	0.039789919	0.041519907	-0.47509925	0.075986048	-0.097311269	-0.80531192	0.053312789	0.085835683	-0.44716091	0.098862292	-0.018682064	-0.79195972	0.084455531	0.0029283844	-0.52511484	0.040583881	-0.036760876	-0.85934824	0.03143515	0.040560992	-0.46225441	0.46715838	-0.12103453	-0.70045923	0.44305972	0.14214205	-0.42959188	0.44539517	-0.0047154508	-0.70224748	0.451417	0.011465712	-0.60426066	0.81973371	-0.17374587	-0.64781451	0.85732487	0.20798016	-0.56385929	0.93190577	-0.10853004	-0.5670413	0.94233121	0.1370452	-0.77274944	0.95618516	0.018122974	-0.62678157	1.412828	-0.14110057	-0.6300941	1.3988813	0.18519073	-0.71481375	1.4355338	0.018604146	-0.73010524	1.0826024	-0.19959302	-0.62997035	1.0412967	0.23465708	-0.6047828	0.87185187	-0.21168465	-0.42619672	0.90010195	0.21951183
132	0.524	-0.32184035	0.062615276	-0.10051109	-0.66753767	0.039677622	0.041442151	-0.45730676	0.074343799	-0.097149057	-0.80518802	0.053366439	0.085769675	-0.43056816	0.098245823	-0.018340303	-0.79177045	0.084415755	0.0026182297	-0.50705531	0.037981946	-0.037196708	-0.85931701	0.031562245	0.040516776	-0.45599054	0.46595868	-0.12101107	-0.69789374	0.44250646	0.14165413	-0.42332046	0.44461535	-0.004473659	-0.69963248	0.45089033	0.011014572	-0.59822371	0.81916747	-0.17401253	-0.64330041	0.85650978	0.20706076	-0.55774669	0.93101824	-0.10849978	-0.56239043	0.9413123	0.1371244	-0.76925662	0.95542734	0.01789635	-0.6213256	1.411771	-0.14110327	-0.62498745	1.3981151	0.18521056	-0.70946172	1.4346146	0.018527604	-0.7255771	1.0819807	-0.19992325	-0.62281661	1.0403774	0.23446085	-0.60217784	0.87044171	-0.21185268	-0.41707776	0.90194612	0.21762304
133	0.528	-0.30374795	0.064824733	-0.099083473	-0.66746321	0.039558938	0.041386894	-0.43951916	0.072954209	-0.096982456	-0.80505903	0.053414374	0.085699243	-0.41417526	0.097799211	-0.018020337	-0.79155377	0.084364694	0.002302219	-0.48914677	0.035986659	-0.037700493	-0.85928449	0.03170345	0.040444054	-0.4497212	0.46468744	-0.12102146	-0.69523199	0.44191727	0.14116679	-0.41726901	0.44370854	-0.0042255693	-0.69699637	0.4502989	0.010562564	-0.5923833	0.81848378	-0.17430873	-0.63876912	0.85564274	0.20616916	-0.55158594	0.93005385	-0.10846523	-0.55771583	0.94026491	0.13718023	-0.76618967	0.9547437	0.017911904	-0.61586828	1.4106534	-0.14111345	-0.61987233	1.3972895	0.18522815	-0.70432941	1.4336373	0.018488135	-0.72096652	1.0813661	-0.20011869	-0.61576768	1.0393937	0.23438689	-0.59956095	0.86899858	-0.21198598	-0.40802662	0.90376007	0.21573401
134	0.532	-0.28583904	0.067167933	-0.097435856	-0.66735683	0.039450261	0.041372627	-0.42182608	0.071884789	-0.096865775	-0.80493046	0.053457571	0.085626272	-0.39804976	0.097528984	-0.01771465	-0.79129639	0.084306672	0.002028832	-0.4714349	0.034510718	-0.038269737	-0.85925894	0.031866237	0.04028386	-0.44341139	0.46337982	-0.12109131	-0.69242972	0.44128852	0.14070549	-0.41143049	0.44268295	-0.0039721242	-0.6942386	0.4496443	0.010114266	-0.58652286	0.8177189	-0.17460014	-0.63441202	0.8547726	0.20548304	-0.54537593	0.92901326	-0.10841746	-0.5530193	0.93920404	0.13721808	-0.76289579	0.95406574	0.017887884	-0.61042725	1.4094753	-0.14114172	-0.6147382	1.3964093	0.18524821	-0.69927432	1.4326019	0.018459887	-0.71655407	1.0807398	-0.20031447	-0.60889637	1.038319	0.23453256	-0.59689555	0.8675312	-0.21209403	-0.39905182	0.90553882	0.21383617
135	0.536	-0.26815886	0.069598486	-0.095537089	-0.66723287	0.039372932	0.041385901	-0.40430675	0.071170333	-0.096813999	-0.80480165	0.053501397	0.085553893	-0.38226762	0.097442394	-0.017414052	-0.79101378	0.084246617	0.0018044464	-0.45399116	0.033362132	-0.038917778	-0.85924991	0.03205902	0.039974015	-0.43704229	0.46205651	-0.12122488	-0.68953613	0.4406254	0.14026432	-0.40579029	0.44155617	-0.0037128922	-0.69127612	0.44892532	0.0096636803	-0.58052557	0.81689572	-0.1748655	-0.63022854	0.85390587	0.20499831	-0.53911504	0.92790202	-0.10835505	-0.54831283	0.93813839	0.13724435	-0.75826075	0.95320259	0.016993417	-0.60499937	1.4082438	-0.14118407	-0.609579	1.395479	0.18527381	-0.69416877	1.4315158	0.018426472	-0.71232136	1.0800872	-0.20051219	-0.60216629	1.0371471	0.23484643	-0.5941806	0.86604974	-0.21219649	-0.39015921	0.90728835	0.21192137
136	0.54	-0.25076176	0.072088499	-0.093348606	-0.66711839	0.039324207	0.04140074	-0.38702916	0.070804694	-0.096808107	-0.80466765	0.053557752	0.085484016	-0.36688061	0.097544568	-0.017103533	-0.79072629	0.084185663	0.0016150502	-0.43689298	0.032412979	-0.039669398	-0.85925525	0.03227701	0.039532811	-0.43061532	0.46071812	-0.12141413	-0.68661296	0.43993437	0.1398253	-0.40032999	0.44034132	-0.0034487331	-0.68811362	0.44814136	0.0092049457	-0.57438687	0.81601386	-0.17510163	-0.62614358	0.85303115	0.20462801	-0.53280724	0.92673241	-0.10828419	-0.54362542	0.93706051	0.13727872	-0.75125828	0.95189246	0.014111874	-0.59956929	1.4069744	-0.14122345	-0.60439645	1.3944963	0.18530259	-0.68898045	1.430382	0.018385357	-0.70812927	1.0794012	-0.20071081	-0.59543509	1.0359113	0.23512564	-0.59145238	0.86456038	-0.21231607	-0.38135806	0.90901714	0.20999444
137	0.544	-0.23373069	0.074630024	-0.090851595	-0.66702629	0.039285624	0.041409589	-0.3700561	0.070759536	-0.096834833	-0.80452768	0.053640022	0.085413797	-0.35191661	0.097834403	-0.01675281	-0.79044203	0.084124468	0.0014425595	-0.42017797	0.031625852	-0.040580324	-0.85925788	0.032499508	0.039083392	-0.42413843	0.45936435	-0.12165477	-0.68372761	0.43921041	0.13936697	-0.39503302	0.43903513	-0.0031755626	-0.68481885	0.44730654	0.0087449633	-0.56816027	0.81505809	-0.17531851	-0.62209533	0.8521379	0.2042879	-0.52646773	0.92552097	-0.10820784	-0.53898472	0.93595944	0.13734357	-0.74206083	0.9499714	0.0089105989	-0.59412661	1.4056807	-0.14124578	-0.59920009	1.3934595	0.18533211	-0.6837344	1.4291965	0.018337918	-0.70390447	1.0786792	-0.20093623	-0.5885929	1.0346537	0.23520908	-0.58875745	0.86306526	-0.21247581	-0.37266253	0.91072395	0.20807194
138	0.548	-0.21717881	0.077239101	-0.088073003	-0.66695298	0.039245508	0.041417551	-0.35345274	0.070985157	-0.096901646	-0.80438816	0.053752609	0.085333067	-0.33742095	0.098291826	-0.016321556	-0.79016507	0.084070777	0.0012672251	-0.40379361	0.0309134	-0.041728745	-0.85924105	0.032708444	0.038757637	-0.41761071	0.45800563	-0.12193097	-0.68095058	0.43844198	0.13887416	-0.38988365	0.43762711	-0.0028763235	-0.68144837	0.44645024	0.0083027543	-0.56191034	0.81401056	-0.17552929	-0.61805435	0.8512204	0.20393497	-0.5201202	0.924282	-0.10811526	-0.53438453	0.93483101	0.13743577	-0.73237223	0.94758712	0.0026766394	-0.58866548	1.4043672	-0.14125012	-0.59400151	1.3923764	0.18536423	-0.67847296	1.4279626	0.018288014	-0.69964818	1.0779226	-0.20119473	-0.58163545	1.0333851	0.23509006	-0.58611951	0.86156461	-0.21268695	-0.36407282	0.91239799	0.20616323
